# OBJ written from /Users/bstahl/Dropbox/Ben Dropbox/Developer/Code/SceneKitTest/# Intermediate/player_card_v0001_0008.obj
# Units	meters

o player_card_mesh
v 200 -20 -270
v 200 -20 -170
v 200 -20 -160
v 200 -20 130
v 200 -20 140
v 200 -20 180
v 200 -20 190
v 200 -20 270
v -200 -20 270
v -200 -20 190
v -200 -20 180
v -200 -20 140
v -200 -20 130
v -200 -20 -160
v -200 -20 -170
v -200 -20 -270
v -190 -20 -270
v -190 -20 -170
v -190 -20 -160
v -190 -20 130
v -190 -20 140
v -190 -20 180
v -190 -20 190
v -190 -20 270
v 190 -20 -270
v 190 -20 -170
v 190 -20 -160
v 190 -20 130
v 190 -20 140
v 190 -20 180
v 190 -20 190
v 190 -20 270
v 200 20 -270
v 200 20 -170
v 200 20 -160
v 200 20 130
v 200 20 140
v 200 20 180
v 200 20 190
v 200 20 270
v -200 20 270
v -200 20 190
v -200 20 180
v -200 20 140
v -200 20 130
v -200 20 -160
v -200 20 -170
v -200 20 -270
v -190 20 -270
v -190 20 -170
v -190 20 -160
v -190 20 130
v -190 20 140
v -190 20 180
v -190 20 190
v -190 20 270
v 190 20 -270
v 190 20 -170
v 190 20 -160
v 190 20 130
v 190 20 140
v 190 20 180
v 190 20 190
v 190 20 270
v -200 -20 -280
v -190 -20 -280
v -200 20 -280
v -190 20 -280
v 200 -20 -280
v 190 -20 -280
v 200 20 -280
v 190 20 -280
v -200 -20 280
v -190 -20 280
v -200 20 280
v -190 20 280
v 200 -20 280
v 190 -20 280
v 200 20 280
v 190 20 280
v -190 20 -270
v -190 20 -170
v -190 20 -160
v -190 20 130
v -190 20 140
v -190 20 180
v -190 20 190
v -190 20 270
v 190 20 -270
v 190 20 -170
v 190 20 -160
v 190 20 130
v 190 20 140
v 190 20 180
v 190 20 190
v 190 20 270
v -187 10 -267
v -187 10 -173
v -187 10 -157
v -187 10 127
v -187 10 143
v -187 10 177
v -187 10 193
v -187 10 267
v 187 10 -267
v 187 10 -173
v 187 10 -157
v 187 10 127
v 187 10 143
v 187 10 177
v 187 10 193
v 187 10 267
vn 0 -1 0
vn 1 0 0
vn -1 0 0
vn 0 1 0
vn 0 0 -1
vn 0 0 1
vn 0.957826 0.287348 0
vn 0 0.287348 -0.957826
vn -0.957826 0.287348 0
vn 0 0.287348 0.957826
vt 0.25 0.037037
vt 0.333333 0.037037
vt 0.333333 0.0740741
vt 0.25 0.0740741
vt 0.333333 0.111111
vt 0.25 0.111111
vt 0.333333 0.148148
vt 0.25 0.148148
vt 0.333333 0.185185
vt 0.25 0.185185
vt 0.333333 0.222222
vt 0.25 0.222222
vt 0.333333 0.259259
vt 0.25 0.259259
vt 0.333333 0.296296
vt 0.25 0.296296
vt 0.416667 0.037037
vt 0.416667 0.0740741
vt 0.416667 0.111111
vt 0.416667 0.148148
vt 0.416667 0.185185
vt 0.416667 0.222222
vt 0.416667 0.259259
vt 0.416667 0.296296
vt 0.5 0.037037
vt 0.5 0.0740741
vt 0.5 0.111111
vt 0.5 0.148148
vt 0.5 0.185185
vt 0.5 0.222222
vt 0.5 0.259259
vt 0.5 0.296296
vt 0.722222 0.666667
vt 0.694444 0.666667
vt 0.694444 0.333333
vt 0.722222 0.333333
vt 0.666667 0.666667
vt 0.666667 0.333333
vt 0.638889 0.666667
vt 0.638889 0.333333
vt 0.611111 0.666667
vt 0.611111 0.333333
vt 0.583333 0.666667
vt 0.583333 0.333333
vt 0.555556 0.666667
vt 0.555556 0.333333
vt 0.527778 0.666667
vt 0.527778 0.333333
vt 0.222222 0.666667
vt 0.194444 0.666667
vt 0.194444 0.333333
vt 0.222222 0.333333
vt 0.166667 0.666667
vt 0.166667 0.333333
vt 0.138889 0.666667
vt 0.138889 0.333333
vt 0.111111 0.666667
vt 0.111111 0.333333
vt 0.0833333 0.666667
vt 0.0833333 0.333333
vt 0.0555556 0.666667
vt 0.0555556 0.333333
vt 0.0277778 0.666667
vt 0.0277778 0.333333
vt 0.25 0.962963
vt 0.25 0.925926
vt 0.333333 0.925926
vt 0.333333 0.962963
vt 0.25 0.888889
vt 0.333333 0.888889
vt 0.25 0.851852
vt 0.333333 0.851852
vt 0.25 0.814815
vt 0.333333 0.814815
vt 0.25 0.777778
vt 0.333333 0.777778
vt 0.25 0.740741
vt 0.333333 0.740741
vt 0.25 0.703704
vt 0.333333 0.703704
vt 0.416667 0.888889
vt 0.416667 0.925926
vt 0.416667 0.814815
vt 0.416667 0.851852
vt 0.416667 0.740741
vt 0.416667 0.777778
vt 0.416667 0.962963
vt 0.5 0.925926
vt 0.5 0.962963
vt 0.5 0.888889
vt 0.5 0.851852
vt 0.5 0.814815
vt 0.5 0.777778
vt 0.5 0.740741
vt 0.416667 0.703704
vt 0.5 0.703704
vt 0.25 0
vt 0.333333 0
vt 0.333333 0.333333
vt 0.25 0.333333
vt 0.416667 0
vt 0.416667 0.333333
vt 0.5 0
vt 0.5 0.333333
vt 1 0.666667
vt 0.916667 0.666667
vt 0.916667 0.333333
vt 1 0.333333
vt 0.833333 0.666667
vt 0.833333 0.333333
vt 0.75 0.666667
vt 0.75 0.333333
vt 0.5 0.666667
vt 0.416667 0.666667
vt 0.333333 0.666667
vt 0.25 0.666667
vt 0 0.666667
vt 0 0.333333
vt 0.25 1
vt 0.333333 1
vt 0.416667 1
vt 0.5 1
vt 0.33445 0.927043
vt 0.33445 0.961846
vt 0.41555 0.927043
vt 0.41555 0.961846
vt 0.41555 0.739624
vt 0.41555 0.704821
vt 0.33445 0.739624
vt 0.33445 0.704821
vt 0.33445 0.778895
vt 0.33445 0.813698
vt 0.41555 0.778895
vt 0.41555 0.813698
vt 0.33445 0.852969
vt 0.33445 0.887772
vt 0.41555 0.852969
vt 0.41555 0.887772
mtllib player_card_v0001_0008.mtl
usemtl player_card_hs
g Default
f 99/136/4 100/135/4 108/137/4 107/138/4
usemtl Black_032High_032Gloss_032Plastic_046lxp
f 16/1/1 17/2/1 18/3/1 15/4/1
f 15/4/1 18/3/1 19/5/1 14/6/1
f 14/6/1 19/5/1 20/7/1 13/8/1
f 13/8/1 20/7/1 21/9/1 12/10/1
f 12/10/1 21/9/1 22/11/1 11/12/1
f 11/12/1 22/11/1 23/13/1 10/14/1
f 10/14/1 23/13/1 24/15/1 9/16/1
f 17/2/1 25/17/1 26/18/1 18/3/1
f 18/3/1 26/18/1 27/19/1 19/5/1
f 19/5/1 27/19/1 28/20/1 20/7/1
f 20/7/1 28/20/1 29/21/1 21/9/1
f 21/9/1 29/21/1 30/22/1 22/11/1
f 22/11/1 30/22/1 31/23/1 23/13/1
f 23/13/1 31/23/1 32/24/1 24/15/1
f 25/17/1 1/25/1 2/26/1 26/18/1
f 26/18/1 2/26/1 3/27/1 27/19/1
f 27/19/1 3/27/1 4/28/1 28/20/1
f 28/20/1 4/28/1 5/29/1 29/21/1
f 29/21/1 5/29/1 6/30/1 30/22/1
f 30/22/1 6/30/1 7/31/1 31/23/1
f 31/23/1 7/31/1 8/32/1 32/24/1
f 33/33/2 34/34/2 2/35/2 1/36/2
f 34/34/2 35/37/2 3/38/2 2/35/2
f 35/37/2 36/39/2 4/40/2 3/38/2
f 36/39/2 37/41/2 5/42/2 4/40/2
f 37/41/2 38/43/2 6/44/2 5/42/2
f 38/43/2 39/45/2 7/46/2 6/44/2
f 39/45/2 40/47/2 8/48/2 7/46/2
f 41/49/3 42/50/3 10/51/3 9/52/3
f 42/50/3 43/53/3 11/54/3 10/51/3
f 43/53/3 44/55/3 12/56/3 11/54/3
f 44/55/3 45/57/3 13/58/3 12/56/3
f 45/57/3 46/59/3 14/60/3 13/58/3
f 46/59/3 47/61/3 15/62/3 14/60/3
f 47/61/3 48/63/3 16/64/3 15/62/3
f 48/65/4 47/66/4 50/67/4 49/68/4
f 47/66/4 46/69/4 51/70/4 50/67/4
f 46/69/4 45/71/4 52/72/4 51/70/4
f 45/71/4 44/73/4 53/74/4 52/72/4
f 44/73/4 43/75/4 54/76/4 53/74/4
f 43/75/4 42/77/4 55/78/4 54/76/4
f 42/77/4 41/79/4 56/80/4 55/78/4
f 50/67/4 51/70/4 59/81/4 58/82/4
f 52/72/4 53/74/4 61/83/4 60/84/4
f 54/76/4 55/78/4 63/85/4 62/86/4
f 57/87/4 58/82/4 34/88/4 33/89/4
f 58/82/4 59/81/4 35/90/4 34/88/4
f 59/81/4 60/84/4 36/91/4 35/90/4
f 60/84/4 61/83/4 37/92/4 36/91/4
f 61/83/4 62/86/4 38/93/4 37/92/4
f 62/86/4 63/85/4 39/94/4 38/93/4
f 63/85/4 64/95/4 40/96/4 39/94/4
f 65/97/1 66/98/1 17/2/1 16/1/1
f 9/16/1 24/15/1 74/99/1 73/100/1
f 66/98/1 70/101/1 25/17/1 17/2/1
f 24/15/1 32/24/1 78/102/1 74/99/1
f 70/101/1 69/103/1 1/25/1 25/17/1
f 32/24/1 8/32/1 77/104/1 78/102/1
f 67/105/5 68/106/5 66/107/5 65/108/5
f 68/106/5 72/109/5 70/110/5 66/107/5
f 72/109/5 71/111/5 69/112/5 70/110/5
f 71/111/2 33/33/2 1/36/2 69/112/2
f 40/47/2 79/113/2 77/104/2 8/48/2
f 79/113/6 80/114/6 78/102/6 77/104/6
f 80/114/6 76/115/6 74/99/6 78/102/6
f 76/115/6 75/116/6 73/100/6 74/99/6
f 75/116/3 41/49/3 9/52/3 73/100/3
f 48/63/3 67/117/3 65/118/3 16/64/3
f 67/119/4 48/65/4 49/68/4 68/120/4
f 41/79/4 75/116/4 76/115/4 56/80/4
f 68/120/4 49/68/4 57/87/4 72/121/4
f 56/80/4 76/115/4 80/114/4 64/95/4
f 72/121/4 57/87/4 33/89/4 71/122/4
f 64/95/4 80/114/4 79/113/4 40/96/4
f 52/72/4 60/84/4 92/84/4 84/72/4
f 60/84/4 59/81/4 91/81/4 92/84/4
f 59/81/4 51/70/4 83/70/4 91/81/4
f 51/70/4 52/72/4 84/72/4 83/70/4
f 49/68/4 50/67/4 82/67/4 81/68/4
f 50/67/4 58/82/4 90/82/4 82/67/4
f 58/82/4 57/87/4 89/87/4 90/82/4
f 57/87/4 49/68/4 81/68/4 89/87/4
f 55/78/4 56/80/4 88/80/4 87/78/4
f 56/80/4 64/95/4 96/95/4 88/80/4
f 64/95/4 63/85/4 95/85/4 96/95/4
f 63/85/4 55/78/4 87/78/4 95/85/4
f 62/86/4 61/83/4 93/83/4 94/86/4
f 61/83/4 53/74/4 85/74/4 93/83/4
f 53/74/4 54/76/4 86/76/4 85/74/4
f 54/76/4 62/86/4 94/86/4 86/76/4
f 81/68/7 82/67/7 98/123/7 97/124/7
f 82/67/8 90/82/8 106/125/8 98/123/8
f 90/82/9 89/87/9 105/126/9 106/125/9
f 89/87/10 81/68/10 97/124/10 105/126/10
f 96/95/9 95/85/9 111/127/9 112/128/9
f 95/85/10 87/78/10 103/129/10 111/127/10
f 87/78/7 88/80/7 104/130/7 103/129/7
f 88/80/8 96/95/8 112/128/8 104/130/8
f 85/74/7 86/76/7 102/131/7 101/132/7
f 86/76/8 94/86/8 110/133/8 102/131/8
f 94/86/9 93/83/9 109/134/9 110/133/9
f 93/83/10 85/74/10 101/132/10 109/134/10
f 83/70/7 84/72/7 100/135/7 99/136/7
f 84/72/8 92/84/8 108/137/8 100/135/8
f 92/84/9 91/81/9 107/138/9 108/137/9
f 91/81/10 83/70/10 99/136/10 107/138/10
usemtl player_card_name_bg
f 97/124/4 98/123/4 106/125/4 105/126/4
usemtl player_card_team_strip
f 101/132/4 102/131/4 110/133/4 109/134/4
usemtl player_card_stats_bg
f 103/129/4 104/130/4 112/128/4 111/127/4
